<svg width="138" height="40" viewBox="0 0 138 40" fill="none" xmlns="http://www.w3.org/2000/svg">
  <path d="M11.7854 23.1268H17.4942C18.9765 23.1268 20.2851 23.4272 21.4202 24.0282C22.5553 24.6157 23.4366 25.4437 24.0643 26.512C24.6919 27.5669 25.0057 28.7755 25.0057 30.1376C25.0057 31.4996 24.6919 32.7148 24.0643 33.7832C23.4366 34.8381 22.5553 35.666 21.4202 36.267C20.2851 36.8545 18.9765 37.1483 17.4942 37.1483H11.7854V23.1268ZM17.4141 35.8664C18.6426 35.8664 19.7176 35.626 20.639 35.1452C21.5604 34.6512 22.2749 33.9768 22.7823 33.1221C23.2897 32.2541 23.5435 31.2593 23.5435 30.1376C23.5435 29.0158 23.2897 28.0276 22.7823 27.173C22.2749 26.305 21.5604 25.6306 20.639 25.1499C19.7176 24.6558 18.6426 24.4087 17.4141 24.4087H13.2677V35.8664H17.4141Z" fill="white" />
  <path d="M34.4637 37.2685C33.0749 37.2685 31.813 36.9614 30.6779 36.3471C29.5562 35.7195 28.6748 34.8648 28.0338 33.7832C27.4062 32.7015 27.0924 31.4863 27.0924 30.1376C27.0924 28.7888 27.4062 27.5736 28.0338 26.4919C28.6748 25.4103 29.5562 24.5623 30.6779 23.948C31.813 23.3204 33.0749 23.0066 34.4637 23.0066C35.8525 23.0066 37.1011 23.3137 38.2094 23.928C39.3312 24.5423 40.2125 25.3969 40.8535 26.4919C41.4945 27.5736 41.815 28.7888 41.815 30.1376C41.815 31.4863 41.4945 32.7082 40.8535 33.8032C40.2125 34.8848 39.3312 35.7328 38.2094 36.3471C37.1011 36.9614 35.8525 37.2685 34.4637 37.2685ZM34.4637 35.9465C35.5721 35.9465 36.5736 35.6994 37.4683 35.2053C38.363 34.6979 39.0641 34.0035 39.5715 33.1221C40.079 32.2274 40.3327 31.2326 40.3327 30.1376C40.3327 29.0425 40.079 28.0543 39.5715 27.173C39.0641 26.2783 38.363 25.5839 37.4683 25.0898C36.5736 24.5823 35.5721 24.3286 34.4637 24.3286C33.3553 24.3286 32.3471 24.5823 31.439 25.0898C30.5443 25.5839 29.8366 26.2783 29.3158 27.173C28.8083 28.0543 28.5546 29.0425 28.5546 30.1376C28.5546 31.2326 28.8083 32.2274 29.3158 33.1221C29.8366 34.0035 30.5443 34.6979 31.439 35.2053C32.3471 35.6994 33.3553 35.9465 34.4637 35.9465Z" fill="white" />
  <path d="M59.6998 23.1268V37.1483H58.2776V25.9311L52.7692 35.3656H52.0681L46.5596 25.9912V37.1483H45.1374V23.1268H46.3593L52.4487 33.5228L58.4779 23.1268H59.6998Z" fill="white" />
  <path d="M70.3978 37.2685C69.009 37.2685 67.7471 36.9614 66.612 36.3471C65.4903 35.7195 64.6089 34.8648 63.9679 33.7832C63.3403 32.7015 63.0265 31.4863 63.0265 30.1376C63.0265 28.7888 63.3403 27.5736 63.9679 26.4919C64.6089 25.4103 65.4903 24.5623 66.612 23.948C67.7471 23.3204 69.009 23.0066 70.3978 23.0066C71.7866 23.0066 73.0352 23.3137 74.1436 23.928C75.2653 24.5423 76.1467 25.3969 76.7877 26.4919C77.4286 27.5736 77.7491 28.7888 77.7491 30.1376C77.7491 31.4863 77.4286 32.7082 76.7877 33.8032C76.1467 34.8848 75.2653 35.7328 74.1436 36.3471C73.0352 36.9614 71.7866 37.2685 70.3978 37.2685ZM70.3978 35.9465C71.5062 35.9465 72.5077 35.6994 73.4024 35.2053C74.2972 34.6979 74.9982 34.0035 75.5057 33.1221C76.0131 32.2274 76.2668 31.2326 76.2668 30.1376C76.2668 29.0425 76.0131 28.0543 75.5057 27.173C74.9982 26.2783 74.2972 25.5839 73.4024 25.0898C72.5077 24.5823 71.5062 24.3286 70.3978 24.3286C69.2895 24.3286 68.2812 24.5823 67.3732 25.0898C66.4785 25.5839 65.7707 26.2783 65.2499 27.173C64.7425 28.0543 64.4887 29.0425 64.4887 30.1376C64.4887 31.2326 64.7425 32.2274 65.2499 33.1221C65.7707 34.0035 66.4785 34.6979 67.3732 35.2053C68.2812 35.6994 69.2895 35.9465 70.3978 35.9465Z" fill="white" />
  <path d="M84.9375 37.2685C83.8959 37.2685 82.8944 37.1016 81.9329 36.7677C80.9848 36.4339 80.2503 35.9932 79.7295 35.4457L80.3104 34.304C80.8179 34.8114 81.4922 35.2254 82.3335 35.5459C83.1748 35.853 84.0428 36.0066 84.9375 36.0066C86.1928 36.0066 87.1342 35.7796 87.7619 35.3255C88.3895 34.8581 88.7033 34.2572 88.7033 33.5228C88.7033 32.9619 88.5297 32.5145 88.1825 32.1807C87.8487 31.8468 87.4347 31.5931 86.9406 31.4195C86.4465 31.2326 85.7588 31.0323 84.8774 30.8186C83.8225 30.5515 82.9812 30.2978 82.3535 30.0574C81.7259 29.8037 81.1851 29.4231 80.7311 28.9157C80.2904 28.4082 80.07 27.7205 80.07 26.8525C80.07 26.1447 80.257 25.5038 80.6309 24.9295C81.0048 24.342 81.579 23.8746 82.3535 23.5274C83.1281 23.1802 84.0895 23.0066 85.238 23.0066C86.0392 23.0066 86.8204 23.1201 87.5816 23.3471C88.3561 23.5608 89.0238 23.8612 89.5847 24.2485L89.0839 25.4303C88.4963 25.0431 87.8687 24.7559 87.201 24.569C86.5333 24.3687 85.879 24.2685 85.238 24.2685C84.0094 24.2685 83.0813 24.5089 82.4537 24.9896C81.8394 25.457 81.5323 26.0646 81.5323 26.8124C81.5323 27.3733 81.6992 27.8273 82.0331 28.1745C82.3802 28.5084 82.8076 28.7688 83.315 28.9557C83.8358 29.1293 84.5302 29.323 85.3982 29.5366C86.4265 29.7904 87.2544 30.0441 87.882 30.2978C88.523 30.5382 89.0639 30.9121 89.5045 31.4195C89.9452 31.9136 90.1656 32.588 90.1656 33.4426C90.1656 34.1504 89.9719 34.798 89.5847 35.3856C89.2107 35.9598 88.6299 36.4205 87.842 36.7677C87.0541 37.1016 86.0859 37.2685 84.9375 37.2685Z" fill="white" />
  <path d="M102.229 29.9172C103.15 30.1175 103.858 30.5181 104.352 31.1191C104.859 31.7066 105.113 32.4678 105.113 33.4026C105.113 34.6044 104.666 35.5325 103.771 36.1868C102.89 36.8278 101.581 37.1483 99.8451 37.1483H93.3952V23.1268H99.4445C101.007 23.1268 102.215 23.4406 103.07 24.0682C103.938 24.6959 104.372 25.5839 104.372 26.7323C104.372 27.5068 104.178 28.1679 103.791 28.7154C103.417 29.2495 102.896 29.6501 102.229 29.9172ZM94.8775 24.3487V29.4365H99.3443C100.479 29.4365 101.354 29.2228 101.968 28.7955C102.583 28.3548 102.89 27.7205 102.89 26.8926C102.89 26.0646 102.583 25.437 101.968 25.0097C101.354 24.569 100.479 24.3487 99.3443 24.3487H94.8775ZM99.8251 35.9264C101.08 35.9264 102.028 35.7128 102.669 35.2855C103.31 34.8581 103.631 34.1904 103.631 33.2824C103.631 31.533 102.362 30.6584 99.8251 30.6584H94.8775V35.9264H99.8251Z" fill="white" />
  <path d="M114.626 37.2685C113.237 37.2685 111.975 36.9614 110.84 36.3471C109.718 35.7195 108.837 34.8648 108.196 33.7832C107.568 32.7015 107.255 31.4863 107.255 30.1376C107.255 28.7888 107.568 27.5736 108.196 26.4919C108.837 25.4103 109.718 24.5623 110.84 23.948C111.975 23.3204 113.237 23.0066 114.626 23.0066C116.015 23.0066 117.263 23.3137 118.372 23.928C119.493 24.5423 120.375 25.3969 121.016 26.4919C121.657 27.5736 121.977 28.7888 121.977 30.1376C121.977 31.4863 121.657 32.7082 121.016 33.8032C120.375 34.8848 119.493 35.7328 118.372 36.3471C117.263 36.9614 116.015 37.2685 114.626 37.2685ZM114.626 35.9465C115.734 35.9465 116.736 35.6994 117.631 35.2053C118.525 34.6979 119.226 34.0035 119.734 33.1221C120.241 32.2274 120.495 31.2326 120.495 30.1376C120.495 29.0425 120.241 28.0543 119.734 27.173C119.226 26.2783 118.525 25.5839 117.631 25.0898C116.736 24.5823 115.734 24.3286 114.626 24.3286C113.518 24.3286 112.509 24.5823 111.601 25.0898C110.707 25.5839 109.999 26.2783 109.478 27.173C108.971 28.0543 108.717 29.0425 108.717 30.1376C108.717 31.2326 108.971 32.2274 109.478 33.1221C109.999 34.0035 110.707 34.6979 111.601 35.2053C112.509 35.6994 113.518 35.9465 114.626 35.9465Z" fill="white" />
  <path d="M134.874 37.1483L131.669 32.6414C131.309 32.6815 130.935 32.7015 130.548 32.7015H126.782V37.1483H125.3V23.1268H130.548C132.337 23.1268 133.739 23.5541 134.754 24.4087C135.769 25.2634 136.277 26.4385 136.277 27.9342C136.277 29.0292 135.996 29.9573 135.435 30.7184C134.888 31.4663 134.1 32.0071 133.072 32.3409L136.497 37.1483H134.874ZM130.508 31.4396C131.896 31.4396 132.958 31.1324 133.693 30.5181C134.427 29.9039 134.794 29.0425 134.794 27.9342C134.794 26.7991 134.427 25.9311 133.693 25.3302C132.958 24.7159 131.896 24.4087 130.508 24.4087H126.782V31.4396H130.508Z" fill="white" />
  <path d="M7.70415 37.1751H1.28403H0V35.8911V13.9664L29.9506 0L59.8356 13.9356L59.8356 13.9356L59.8356 18.9419H58.5515V14.7536L29.9502 1.41659L1.28402 14.7839L1.28403 35.8911H7.70415V37.1751Z" fill="#8DB338" />
</svg>