<svg width="26" height="21" viewBox="0 0 26 21" fill="none" xmlns="http://www.w3.org/2000/svg">
  <path fill-rule="evenodd" clip-rule="evenodd" d="M17.1719 0.655801C16.6879 0.760227 16.3933 0.860538 15.9735 1.0639C14.6057 1.7266 13.6259 2.90512 13.2352 4.35772C13.096 4.87509 13.0481 5.86299 13.1372 6.37982L13.1876 6.67246L12.6139 6.63525C10.5689 6.50249 8.32392 5.79238 6.41682 4.67488C5.36362 4.05768 4.60019 3.46566 3.56752 2.46505C2.46521 1.39704 2.56164 1.42191 2.27696 2.13197C1.79212 3.34119 1.75316 4.44378 2.15632 5.54482C2.47006 6.40176 3.13516 7.33928 3.80499 7.86874L4.15413 8.14475H3.96158C3.60402 8.14475 2.82449 7.95904 2.34524 7.75967L1.86894 7.56149V7.85562C1.86894 8.90603 2.44044 10.1801 3.30423 11.0556C3.94401 11.7041 4.57598 12.0918 5.46423 12.3809L5.95589 12.5409L5.42668 12.6174C5.12111 12.6616 4.63356 12.6817 4.27311 12.6649C3.54023 12.6306 3.56002 12.5774 4.00079 13.3968C4.48121 14.2898 5.2702 15.0558 6.17099 15.5037C6.82822 15.8305 7.17263 15.939 7.85795 16.035L8.40289 16.1113L8.16272 16.295C8.03064 16.3961 7.73595 16.5892 7.50788 16.7242C5.72917 17.7773 3.7404 18.283 1.66214 18.2105C0.748877 18.1787 0.748876 18.18 1.65323 18.6513C4.74603 20.2631 8.08528 20.7805 11.5485 20.1845C16.7908 19.2823 20.9607 15.6603 22.6723 10.5223C23.133 9.13946 23.3792 7.67868 23.3792 6.32746V5.53498L23.7326 5.2777C24.396 4.79463 25.4188 3.73122 25.8661 3.05946L25.9761 2.89432L25.6883 3.01401C25.0646 3.27344 23.2441 3.73957 23.1627 3.66061C23.1494 3.64767 23.3355 3.49118 23.5765 3.31292C24.2578 2.80868 24.9114 1.93939 25.1944 1.16094L25.2748 0.939798L24.5267 1.28749C23.8249 1.61371 22.9884 1.90898 22.3204 2.0663L22.0299 2.13477L21.7059 1.85053C21.0603 1.28433 20.2829 0.887793 19.429 0.689138C18.8448 0.553223 17.7243 0.536703 17.1719 0.655801Z" fill="#F5F5F6" />
</svg>