<svg width="25" height="21" viewBox="0 0 25 21" fill="none" xmlns="http://www.w3.org/2000/svg">
  <path fill-rule="evenodd" clip-rule="evenodd" d="M23.3162 0.683748C21.6521 1.26727 1.14286 8.77763 0.840787 8.91414C-0.16299 9.36763 -0.280339 9.96662 0.555286 10.3718C0.635963 10.4109 2.02416 10.834 3.64016 11.3121L6.57839 12.1813L13.2502 8.2031C16.9197 6.01504 19.9959 4.20025 20.0862 4.17028C20.3128 4.09497 20.5078 4.10201 20.5988 4.18879C20.6625 4.24952 20.6651 4.28 20.6145 4.36925C20.581 4.4283 18.1442 6.53765 15.1995 9.05667C12.2548 11.5757 9.83752 13.6564 9.82779 13.6806C9.81811 13.7047 9.71851 14.9623 9.60644 16.4753L9.40274 19.2262L9.62409 19.1978C9.74584 19.1821 9.93864 19.1222 10.0525 19.0647C10.1664 19.0071 10.9331 18.3452 11.7562 17.5937C12.5793 16.8421 13.2813 16.2169 13.3162 16.2041C13.351 16.1914 14.6619 17.0764 16.2291 18.1709C17.7964 19.2654 19.2016 20.215 19.3516 20.2811C19.7453 20.4545 20.1889 20.4717 20.4769 20.3248C20.7342 20.1936 20.9857 19.8676 21.0914 19.5282C21.1323 19.3968 22.0284 15.4506 23.0826 10.7587C24.8378 2.94708 24.9994 2.19079 25 1.78535C25.0006 1.40229 24.9839 1.31117 24.8762 1.10955C24.8002 0.967398 24.6708 0.822264 24.5442 0.737439C24.2549 0.54346 23.7759 0.522534 23.3162 0.683748Z" fill="#F5F5F6" />
</svg>