<svg width="25" height="23" viewBox="0 0 25 23" fill="none" xmlns="http://www.w3.org/2000/svg">
  <path d="M0 22.478C0 16.5825 0 10.726 0 4.81744C0.222969 4.80443 0.432823 4.7784 0.642677 4.7784C5.79721 4.7784 10.9517 4.76539 16.1063 4.79141C16.8408 4.79141 17.5884 4.8695 18.3097 5.03869C20.041 5.45515 21.1165 6.63946 21.2739 8.35737C21.4313 10.0232 21.392 11.7281 21.2346 13.407C21.0641 15.216 19.8967 16.2571 18.1261 16.6215C18.0081 16.6476 17.89 16.6866 17.6671 16.7517C19.0836 18.6648 20.4607 20.5128 21.9297 22.5041C21.1559 22.5041 17.09 22.5041 17.09 22.5041L13.0503 16.7647H4.44627C4.44627 18.6258 4.44627 20.5649 4.44627 22.465C2.93795 22.478 1.50832 22.478 0 22.478ZM4.45939 12.8734C4.70859 12.8734 4.8791 12.8734 5.0496 12.8734C8.3548 12.8734 11.6469 12.8734 14.9521 12.8734C15.2537 12.8734 15.5685 12.8734 15.8702 12.8604C16.4997 12.8213 16.8932 12.509 16.9457 11.8582C16.985 11.3897 16.985 10.9082 16.985 10.4267C16.9981 9.00809 16.6965 8.69574 15.28 8.69574C11.8698 8.69574 8.45972 8.69574 5.0496 8.69574C4.86598 8.69574 4.66924 8.72177 4.45939 8.73479C4.45939 10.1143 4.45939 11.4418 4.45939 12.8734Z" fill="#F5F5F6" />
  <path d="M22.7955 4.9339C21.5495 4.95993 20.5396 3.99686 20.5265 2.74748C20.5134 1.48508 21.4708 0.508996 22.73 0.495982C23.9629 0.482967 24.9728 1.43302 24.999 2.63035C25.0384 3.91878 24.094 4.90787 22.7955 4.9339Z" fill="#F5F5F6" />
</svg>