<svg width="25" height="19" viewBox="0 0 25 19" fill="none" xmlns="http://www.w3.org/2000/svg">
  <path fill-rule="evenodd" clip-rule="evenodd" d="M7.74007 0.91399C5.91747 0.981479 4.0439 1.09486 3.57656 1.16623C1.90521 1.42117 0.837824 2.28535 0.451723 3.69687C0.0724186 5.08258 -0.118593 9.389 0.0790461 12.0928C0.288411 14.9563 0.428101 15.6231 0.993319 16.4562C1.9771 17.9062 3.66204 18.153 12.5833 18.1539C18.7616 18.1544 21.8591 17.9572 22.7617 17.5055C24.304 16.7338 24.6453 15.8711 24.9194 12.0504C25.1165 9.30431 24.9347 5.07751 24.563 3.76234C24.0558 1.96715 23.0348 1.3282 20.3061 1.09857C17.4727 0.86 11.5496 0.773109 7.74007 0.91399ZM13.9828 8.05307C15.3132 8.81282 16.4025 9.47235 16.4036 9.51875C16.4053 9.59181 13.2111 11.4552 10.7565 12.8129L9.94928 13.2595V9.51875V5.77804L10.7565 6.22482C11.2004 6.47064 12.6523 7.29332 13.9828 8.05307Z" fill="#F5F5F6" />
</svg>