<svg width="26" height="15" viewBox="0 0 26 15" fill="none" xmlns="http://www.w3.org/2000/svg">
  <path fill-rule="evenodd" clip-rule="evenodd" d="M10.1231 0.495384C9.78863 0.626335 9.30645 1.05784 9.30645 1.22629C9.30645 1.30212 9.41262 1.36409 9.54231 1.36409C9.67217 1.36409 9.96994 1.52929 10.204 1.73102C10.7708 2.21943 11.0204 3.88917 10.7961 5.69263C10.6104 7.1856 10.3835 7.5093 9.73113 7.21267C9.15552 6.95077 7.71796 4.79212 6.76895 2.76443C6.21669 1.58457 5.92791 1.15063 5.61691 1.0324C5.07641 0.827247 1.93652 0.828388 1.39504 1.03386C1.15281 1.12584 0.976074 1.32072 0.976074 1.49586C0.976074 1.66236 1.58256 3.00676 2.32363 4.48309C5.41126 10.6338 8.10116 13.5353 11.4451 14.3222C12.8248 14.6468 15.0771 14.6569 15.3409 14.3398C15.4477 14.2113 15.599 13.6552 15.6769 13.1043C15.755 12.5533 15.9355 11.9244 16.0782 11.7071C16.524 11.0277 16.9594 11.2041 18.333 12.6204C20.239 14.5855 20.2057 14.572 23.1169 14.5726C25.7596 14.5733 25.9672 14.5133 25.9672 13.7481C25.9672 13.1253 25.3395 12.2729 23.5001 10.3977C22.611 9.49133 21.8837 8.66209 21.8837 8.55495C21.8837 8.21037 22.3208 7.52023 23.7528 5.60408C25.9497 2.6643 26.4549 1.37812 25.5482 1.03386C25.0136 0.830997 20.9748 0.825288 20.5975 1.02685C20.441 1.11051 19.8241 2.15632 19.2264 3.35069C18.0243 5.75362 16.8495 7.28589 16.2731 7.20272C15.6491 7.11287 15.5183 6.5116 15.5158 3.71908C15.5139 1.71976 15.4587 1.02538 15.2819 0.783704C15.0735 0.49881 14.8159 0.463748 12.7093 0.433253C11.4217 0.414662 10.2579 0.442547 10.1231 0.495384Z" fill="#F5F5F6" />
</svg>