<svg width="36" height="36" viewBox="0 0 36 36" fill="none" xmlns="http://www.w3.org/2000/svg">
  <path d="M13.329 10.7548C13.6034 10.7621 13.9077 10.777 14.1972 11.4195C14.3891 11.8473 14.7125 12.6348 14.9759 13.2763C15.1809 13.7755 15.3496 14.1863 15.3918 14.2703C15.4882 14.4623 15.5476 14.6839 15.4215 14.9423C15.4066 14.9728 15.3925 15.002 15.379 15.03C15.2778 15.24 15.2058 15.3895 15.0357 15.5849C14.9657 15.6652 14.8928 15.7533 14.8202 15.841C14.6925 15.9954 14.5656 16.1487 14.4568 16.257C14.2639 16.4489 14.0635 16.6559 14.2861 17.0399C14.5088 17.4239 15.2879 18.6868 16.4381 19.706C17.6746 20.8068 18.7498 21.2708 19.2933 21.5053C19.3988 21.5508 19.4843 21.5877 19.547 21.6189C19.933 21.8109 20.1629 21.7813 20.3855 21.5229C20.6082 21.2643 21.3502 20.4002 21.61 20.0162C21.8622 19.6322 22.1219 19.6913 22.4781 19.8242C22.8342 19.9571 24.7338 20.8877 25.1196 21.0797C25.1959 21.1176 25.2672 21.1519 25.3333 21.1836C25.6018 21.3123 25.7843 21.3998 25.8617 21.5303C25.9581 21.6927 25.9581 22.4608 25.6391 23.3618C25.3126 24.2629 23.7395 25.127 23.0271 25.1934C22.9597 25.1998 22.8926 25.2079 22.8235 25.2163C22.1707 25.2952 21.342 25.3955 18.3895 24.2333C14.7514 22.8027 12.3499 19.2531 11.8644 18.5355C11.826 18.4788 11.7996 18.4398 11.7855 18.4209L11.7773 18.4099C11.5564 18.1143 10.205 16.306 10.205 14.4403C10.205 12.6552 11.0843 11.7259 11.4854 11.302C11.5108 11.2751 11.5343 11.2503 11.5555 11.2274C11.9117 10.8434 12.3273 10.7474 12.5869 10.7474C12.8467 10.7474 13.1064 10.7474 13.329 10.7548Z" fill="#8DB338" />
  <path fill-rule="evenodd" clip-rule="evenodd" d="M3.27633 31.9971C3.15361 32.4426 3.55934 32.8538 4.00641 32.737L10.9174 30.9319C13.099 32.1136 15.5551 32.7413 18.0558 32.7413H18.0632C26.2921 32.7413 33.0001 26.0722 33.0001 17.8744C33.0001 13.901 31.4491 10.1639 28.6295 7.35736C25.8099 4.55095 22.0626 3 18.063 3C9.83417 3 3.12622 9.66908 3.12622 17.867C3.12529 20.475 3.81366 23.0373 5.12225 25.2967L3.27633 31.9971ZM7.29144 25.8943C7.45166 25.3127 7.37162 24.6911 7.06927 24.1691C5.95904 22.2521 5.37543 20.0782 5.37622 17.867C5.37622 10.9224 11.0661 5.25 18.063 5.25C21.4679 5.25 24.6444 6.56548 27.0422 8.95208C29.4373 11.336 30.7501 14.4992 30.7501 17.8744C30.7501 24.8189 25.0602 30.4913 18.0632 30.4913H18.0558C15.931 30.4913 13.843 29.9577 11.9891 28.9535C11.4873 28.6817 10.901 28.6107 10.3488 28.7549L6.2052 29.8372L7.29144 25.8943Z" fill="#8DB338" />
</svg>